<svg data-v-fde0c5aa="" xmlns="http://www.w3.org/2000/svg" viewBox="0 0 300 300" class="font"><!----><defs data-v-fde0c5aa=""><!----></defs><rect data-v-fde0c5aa="" fill="#EDF2F3" x="0" y="0" width="300px" height="300px" class="logo-background-square"></rect><defs data-v-fde0c5aa=""><linearGradient data-v-fde0c5aa="" gradientTransform="rotate(25)" id="f048892b-089b-4623-85b1-e7af5b4e7133" x1="0%" y1="0%" x2="100%" y2="0%"><stop data-v-fde0c5aa="" offset="0%" stop-color="#20484F" stop-opacity="1"></stop><stop data-v-fde0c5aa="" offset="100%" stop-color="#4E9BAB" stop-opacity="1"></stop></linearGradient></defs><g data-v-fde0c5aa="" id="bb616502-5826-443d-9461-9f967e6ede49" fill="url(#f048892b-089b-4623-85b1-e7af5b4e7133)" transform="matrix(2.051664727834164,0,0,2.051664727834164,40.12309988856158,134.88948925993517)"><path d="M11.56 3.72L11.56 3.72L11.56 3.49L13.45 3.49L13.45 3.63L13.45 3.63Q12.46 5.75 11.26 10.57L11.26 10.57L11.26 10.57Q10.65 12.94 10.56 13.30L10.56 13.30L8.76 13.47L8.76 13.47Q8.76 12.70 7.29 7.55L7.29 7.55L7.29 7.55Q7.24 7.35 7.17 7.08L7.17 7.08L7.17 7.08Q7.10 6.80 6.98 6.36L6.98 6.36L6.98 6.36Q6.86 5.92 6.76 5.56L6.76 5.56L6.73 5.56L6.73 5.56Q6.64 5.94 6.43 6.60L6.43 6.60L6.43 6.60Q6.22 7.27 5.76 8.85L5.76 8.85L5.76 8.85Q5.31 10.43 5.10 11.30L5.10 11.30L5.10 11.30Q4.90 12.17 4.58 13.30L4.58 13.30L2.79 13.47L2.79 13.47Q2.79 12.80 0.97 6.40L0.97 6.40L0.97 6.40Q0.53 4.87 0.35 4.38L0.35 4.38L0.35 4.38Q0.17 3.89-0.06 3.63L-0.06 3.63L-0.06 3.49L2.03 3.49L2.03 3.72L2.03 3.72Q2.03 4.65 2.46 6.31L2.46 6.31L3.95 12.24L3.95 12.24Q5.25 7.84 5.74 5.03L5.74 5.03L5.74 5.03Q5.91 4.03 5.92 3.49L5.92 3.49L7.64 3.49L7.64 3.49Q7.78 4.82 8.51 7.41L8.51 7.41L8.51 7.41Q8.78 8.34 9.88 12.24L9.88 12.24L9.88 12.24Q9.94 11.97 10.30 10.68L10.30 10.68L10.30 10.68Q11.56 6.10 11.56 3.72ZM20.16 4.49L20.06 4.49L20.06 4.49Q19.24 4.28 18.07 4.28L18.07 4.28L18.07 4.28Q16.90 4.28 16.58 4.31L16.58 4.31L16.58 4.31Q16.55 4.84 16.55 7.76L16.55 7.76L19.88 7.69L19.47 8.65L19.38 8.65L19.38 8.65Q18.42 8.54 17.86 8.54L17.86 8.54L17.86 8.54Q17.30 8.54 16.55 8.58L16.55 8.58L16.55 8.58Q16.55 11.98 16.60 12.40L16.60 12.40L16.60 12.40Q16.93 12.45 17.67 12.45L17.67 12.45L17.67 12.45Q19.87 12.45 20.87 12.00L20.87 12.00L20.97 12.00L20.72 13.29L14.85 13.29L14.85 13.19L14.85 13.19Q15.08 12.32 15.08 10.35L15.08 10.35L15.08 6.43L15.08 6.43Q15.08 4.45 14.85 3.58L14.85 3.58L14.85 3.49L20.51 3.44L20.16 4.49ZM23.80 3.51L23.80 3.51L25.89 3.49L25.89 3.49Q29.25 3.49 29.25 5.91L29.25 5.91L29.25 5.91Q29.25 7.08 28.47 7.87L28.47 7.87L28.47 7.87Q27.69 8.67 26.40 8.82L26.40 8.82L28.01 10.85L28.01 10.85Q29.02 12.12 29.53 12.59L29.53 12.59L29.53 12.59Q30.03 13.05 30.39 13.15L30.39 13.15L30.39 13.29L28.10 13.29L28.10 13.29Q27.83 12.85 27.26 12.04L27.26 12.04L24.99 8.86L24.58 8.83L24.58 11.03L24.58 11.03Q24.58 12.50 24.79 13.19L24.79 13.19L24.79 13.29L22.88 13.29L22.88 13.19L22.88 13.19Q23.14 12.47 23.14 11.19L23.14 11.19L23.14 5.75L23.14 5.75Q23.14 4.30 22.93 3.58L22.93 3.58L22.93 3.49L22.93 3.49Q22.93 3.49 23.80 3.51ZM25.70 4.20L25.70 4.20L25.70 4.20Q25.03 4.20 24.63 4.26L24.63 4.26L24.63 4.26Q24.58 4.56 24.58 8.15L24.58 8.15L24.58 8.15Q25.09 8.20 25.55 8.20L25.55 8.20L25.55 8.20Q26.73 8.20 27.21 7.66L27.21 7.66L27.21 7.66Q27.69 7.13 27.69 6.07L27.69 6.07L27.69 6.07Q27.69 5.01 27.24 4.61L27.24 4.61L27.24 4.61Q26.80 4.20 25.70 4.20ZM34.62 12.56L34.62 12.56L34.62 12.56Q35.71 12.56 36.39 11.95L36.39 11.95L36.39 11.95Q37.06 11.34 37.06 10.33L37.06 10.33L37.06 10.33Q37.06 9.32 36.41 8.81L36.41 8.81L36.41 8.81Q35.76 8.29 34.24 8.26L34.24 8.26L33.56 8.25L33.56 8.25Q33.56 11.75 33.61 12.43L33.61 12.43L33.61 12.43Q34.03 12.56 34.62 12.56ZM33.56 7.53L33.56 7.53L34.66 7.53L34.66 7.53Q36.57 7.53 36.57 5.84L36.57 5.84L36.57 5.84Q36.57 4.96 36.10 4.56L36.10 4.56L36.10 4.56Q35.63 4.16 34.83 4.16L34.83 4.16L34.83 4.16Q34.02 4.16 33.59 4.20L33.59 4.20L33.59 4.20Q33.56 4.41 33.56 7.53ZM31.89 3.49L32.72 3.51L34.99 3.49L34.99 3.49Q37.98 3.49 37.98 5.45L37.98 5.45L37.98 5.45Q37.98 6.23 37.59 6.78L37.59 6.78L37.59 6.78Q37.20 7.34 36.62 7.64L36.62 7.64L36.62 7.64Q37.23 7.76 37.84 8.25L37.84 8.25L37.84 8.25Q38.21 8.51 38.42 9.03L38.42 9.03L38.42 9.03Q38.64 9.55 38.64 10.23L38.64 10.23L38.64 10.23Q38.64 11.28 38.14 11.98L38.14 11.98L38.14 11.98Q37.63 12.68 36.83 13.00L36.83 13.00L36.83 13.00Q36.02 13.31 34.82 13.31L34.82 13.31L33.15 13.24L31.85 13.29L31.85 13.19L31.85 13.19Q32.12 12.47 32.12 11.19L32.12 11.19L32.12 5.73L32.12 5.73Q32.12 4.33 31.89 3.58L31.89 3.58L31.89 3.49ZM46.12 4.49L46.02 4.49L46.02 4.49Q45.19 4.28 44.02 4.28L44.02 4.28L44.02 4.28Q42.85 4.28 42.53 4.31L42.53 4.31L42.53 4.31Q42.50 4.84 42.50 7.76L42.50 7.76L45.84 7.69L45.43 8.65L45.33 8.65L45.33 8.65Q44.38 8.54 43.82 8.54L43.82 8.54L43.82 8.54Q43.26 8.54 42.50 8.58L42.50 8.58L42.50 8.58Q42.50 11.98 42.56 12.40L42.56 12.40L42.56 12.40Q42.88 12.45 43.62 12.45L43.62 12.45L43.62 12.45Q45.82 12.45 46.83 12.00L46.83 12.00L46.93 12.00L46.68 13.29L40.81 13.29L40.81 13.19L40.81 13.19Q41.03 12.32 41.03 10.35L41.03 10.35L41.03 6.43L41.03 6.43Q41.03 4.45 40.81 3.58L40.81 3.58L40.81 3.49L46.47 3.44L46.12 4.49ZM53.33 8.81L53.23 8.81L53.23 8.81Q52.47 8.69 51.74 8.69L51.74 8.69L51.74 8.69Q51.00 8.69 50.50 8.72L50.50 8.72L50.50 10.33L50.50 10.33Q50.50 12.32 50.72 13.19L50.72 13.19L50.72 13.29L48.83 13.29L48.83 13.19L48.83 13.19Q49.06 12.32 49.06 10.35L49.06 10.35L49.06 6.44L49.06 6.44Q49.06 4.47 48.83 3.60L48.83 3.60L48.83 3.50L54.50 3.46L54.15 4.52L54.05 4.52L54.05 4.52Q53.17 4.30 52.02 4.30L52.02 4.30L52.02 4.30Q50.88 4.30 50.55 4.33L50.55 4.33L50.55 4.33Q50.50 4.75 50.50 7.87L50.50 7.87L53.77 7.80L53.33 8.81ZM62.09 13.29L56.25 13.29L56.25 13.19L56.25 13.19Q56.46 12.38 56.46 10.35L56.46 10.35L56.46 6.43L56.46 6.43Q56.46 4.40 56.25 3.58L56.25 3.58L56.25 3.49L58.11 3.49L58.11 3.58L58.11 3.58Q58.03 3.92 57.97 4.93L57.97 4.93L57.97 4.93Q57.90 5.95 57.90 6.47L57.90 6.47L57.90 10.40L57.90 10.40Q57.90 11.33 57.99 12.40L57.99 12.40L57.99 12.40Q58.30 12.45 59.11 12.45L59.11 12.45L59.11 12.45Q61.25 12.45 62.24 12.00L62.24 12.00L62.34 12.00L62.09 13.29ZM67.28 9.87L67.28 9.87L67.28 9.87Q66.75 9.86 65.77 9.86L65.77 9.86L65.77 9.86Q64.78 9.86 64.26 9.87L64.26 9.87L64.26 9.87Q63.88 11.48 63.80 11.97L63.80 11.97L63.80 11.97Q63.71 12.46 63.71 13.05L63.71 13.05L63.71 13.29L61.81 13.29L61.81 13.15L61.81 13.15Q62.41 12.68 63.43 9.37L63.43 9.37L63.43 9.37Q65.10 3.99 65.14 3.47L65.14 3.47L66.77 3.30L66.77 3.30Q66.77 3.78 67.62 6.31L67.62 6.31L67.62 6.31Q68.47 8.83 69.02 10.29L69.02 10.29L69.02 10.29Q69.57 11.75 69.85 12.29L69.85 12.29L69.85 12.29Q70.14 12.84 70.49 13.15L70.49 13.15L70.49 13.29L68.14 13.29L68.14 13.05L68.14 13.05Q68.14 12.45 67.83 11.55L67.83 11.55L67.83 11.55Q67.79 11.40 67.67 11.03L67.67 11.03L67.67 11.03Q67.55 10.67 67.46 10.43L67.46 10.43L67.46 10.43Q67.37 10.19 67.28 9.87ZM64.46 9.07L64.46 9.07L67.03 9.07L67.03 9.07Q66.79 8.27 66.31 6.57L66.31 6.57L66.31 6.57Q65.83 4.86 65.73 4.52L65.73 4.52L65.73 4.52Q65.53 5.00 65.00 7.03L65.00 7.03L65.00 7.03Q64.46 9.06 64.46 9.07ZM65.17 1.39L65.28 1.44L65.28 1.44Q65.38 1.55 65.43 1.85L65.43 1.85L65.43 1.85Q65.48 2.14 65.48 2.30L65.48 2.30L65.48 2.30Q65.48 2.45 65.46 2.53L65.46 2.53L65.35 2.63L65.35 2.63Q64.85 2.80 64.34 2.84L64.34 2.84L64.18 2.84L64.04 2.80L64.04 2.80Q63.83 2.38 63.83 1.71L63.83 1.71L63.97 1.60L63.97 1.60Q64.47 1.41 64.95 1.39L64.95 1.39L65.17 1.39ZM67.94 1.26L68.05 1.32L68.05 1.32Q68.15 1.43 68.20 1.73L68.20 1.73L68.20 1.73Q68.25 2.03 68.25 2.18L68.25 2.18L68.25 2.18Q68.25 2.32 68.24 2.41L68.24 2.41L68.12 2.51L68.12 2.51Q67.62 2.67 67.12 2.72L67.12 2.72L66.95 2.72L66.81 2.67L66.81 2.67Q66.60 2.25 66.60 1.58L66.60 1.58L66.74 1.47L66.74 1.47Q67.24 1.29 67.72 1.26L67.72 1.26L67.94 1.26ZM72.66 8.04L72.66 8.04L72.66 8.04Q72.66 10.05 73.63 11.17L73.63 11.17L73.63 11.17Q74.61 12.29 76.05 12.29L76.05 12.29L76.05 12.29Q77.10 12.29 78.83 11.34L78.83 11.34L79.21 11.91L79.21 11.91Q78.57 12.39 78.21 12.60L78.21 12.60L78.21 12.60Q77.85 12.81 77.41 13.03L77.41 13.03L77.41 13.03Q76.50 13.47 75.46 13.47L75.46 13.47L75.46 13.47Q73.64 13.47 72.36 12.11L72.36 12.11L72.36 12.11Q71.08 10.75 71.08 8.47L71.08 8.47L71.08 8.47Q71.08 6.19 72.56 4.75L72.56 4.75L72.56 4.75Q74.05 3.32 76.24 3.32L76.24 3.32L76.24 3.32Q77.71 3.32 79.00 3.99L79.00 3.99L79.00 3.99Q78.83 4.87 78.41 5.47L78.41 5.47L78.41 5.47Q76.97 4.31 75.29 4.31L75.29 4.31L75.29 4.31Q74.79 4.31 74.31 4.41L74.31 4.41L74.31 4.41Q73.60 4.94 73.13 5.85L73.13 5.85L73.13 5.85Q72.66 6.76 72.66 8.04ZM87.18 10.36L87.18 8.58L84.97 8.57L84.97 8.57Q83.58 8.57 82.77 8.58L82.77 8.58L82.77 10.36L82.77 10.36Q82.77 10.88 82.83 11.87L82.83 11.87L82.83 11.87Q82.89 12.87 82.98 13.19L82.98 13.19L82.98 13.29L81.12 13.29L81.12 13.19L81.12 13.19Q81.33 12.38 81.33 10.35L81.33 10.35L81.33 6.43L81.33 6.43Q81.33 4.40 81.12 3.58L81.12 3.58L81.12 3.49L82.98 3.49L82.98 3.58L82.98 3.58Q82.89 3.91 82.83 4.91L82.83 4.91L82.83 4.91Q82.77 5.91 82.77 6.43L82.77 6.43L82.77 7.70L87.18 7.70L87.18 6.43L87.18 6.43Q87.18 5.91 87.12 4.91L87.12 4.91L87.12 4.91Q87.05 3.91 86.97 3.58L86.97 3.58L86.97 3.49L88.83 3.49L88.83 3.58L88.83 3.58Q88.62 4.40 88.62 6.43L88.62 6.43L88.62 10.35L88.62 10.35Q88.62 12.38 88.83 13.19L88.83 13.19L88.83 13.29L86.97 13.29L86.97 13.19L86.97 13.19Q87.05 12.87 87.12 11.87L87.12 11.87L87.12 11.87Q87.18 10.88 87.18 10.36L87.18 10.36ZM97.16 4.49L97.06 4.49L97.06 4.49Q96.24 4.28 95.07 4.28L95.07 4.28L95.07 4.28Q93.90 4.28 93.58 4.31L93.58 4.31L93.58 4.31Q93.55 4.84 93.55 7.76L93.55 7.76L96.88 7.69L96.47 8.65L96.38 8.65L96.38 8.65Q95.42 8.54 94.86 8.54L94.86 8.54L94.86 8.54Q94.30 8.54 93.55 8.58L93.55 8.58L93.55 8.58Q93.55 11.98 93.60 12.40L93.60 12.40L93.60 12.40Q93.93 12.45 94.67 12.45L94.67 12.45L94.67 12.45Q96.87 12.45 97.87 12.00L97.87 12.00L97.97 12.00L97.72 13.29L91.85 13.29L91.85 13.19L91.85 13.19Q92.08 12.32 92.08 10.35L92.08 10.35L92.08 6.43L92.08 6.43Q92.08 4.45 91.85 3.58L91.85 3.58L91.85 3.49L97.51 3.44L97.16 4.49ZM100.79 13.19L100.79 13.29L99.37 13.29L99.37 13.19L99.37 13.19Q99.58 12.26 99.58 9.94L99.58 9.94L99.58 6.80L99.58 6.80Q99.58 4.65 99.40 3.58L99.40 3.58L99.40 3.49L101.09 3.36L105.99 10.98L105.99 6.43L105.99 6.43Q105.99 5.68 105.91 4.81L105.91 4.81L105.91 4.81Q105.83 3.93 105.70 3.58L105.70 3.58L105.70 3.49L107.17 3.49L107.17 3.58L107.17 3.58Q106.96 4.51 106.96 6.83L106.96 6.83L106.96 10.35L106.96 10.35Q106.96 11.19 107.02 12.14L107.02 12.14L107.02 12.14Q107.09 13.10 107.14 13.29L107.14 13.29L105.83 13.43L100.53 5.24L100.53 10.35L100.53 10.35Q100.53 12.21 100.79 13.19L100.79 13.19Z"></path></g><!----><!----></svg>